<svg xmlns="http://www.w3.org/2000/svg" xmlns:xlink="http://www.w3.org/1999/xlink" width="500" zoomAndPan="magnify" viewBox="0 0 375 374.999991" height="500" preserveAspectRatio="xMidYMid meet" version="1.0"><defs><clipPath id="id1"><path d="M 7.351562 37.5 L 367.351562 37.5 L 367.351562 324 L 7.351562 324 Z M 7.351562 37.5 " clip-rule="nonzero"/></clipPath></defs><g clip-path="url(#id1)"><path fill="rgb(23.919678%, 23.919678%, 23.919678%)" d="M 234.46875 42.714844 C 234.132812 42.023438 233.714844 41.382812 233.214844 40.792969 L 231.144531 37.5 L 147.257812 37.5 C 146.398438 37.496094 145.550781 37.613281 144.722656 37.847656 C 143.894531 38.082031 143.117188 38.425781 142.382812 38.878906 C 141.652344 39.335938 140.996094 39.878906 140.417969 40.519531 C 139.839844 41.160156 139.363281 41.863281 138.984375 42.636719 L 138.691406 43.226562 L 136.839844 46.242188 L 137.011719 46.609375 L 77.953125 165.671875 C 77.363281 166.875 77.050781 168.144531 77.011719 169.480469 C 76.972656 170.820312 77.214844 172.105469 77.730469 173.339844 L 79.378906 177.207031 L 224.519531 226.121094 L 259.6875 298.257812 L 59.660156 224.316406 C 59.125 224.121094 58.582031 223.972656 58.023438 223.878906 C 57.460938 223.78125 56.898438 223.738281 56.332031 223.746094 C 55.765625 223.753906 55.203125 223.816406 54.648438 223.929688 C 54.089844 224.039062 53.550781 224.203125 53.023438 224.414062 C 52.496094 224.628906 51.996094 224.886719 51.515625 225.191406 C 51.039062 225.5 50.59375 225.847656 50.175781 226.234375 C 49.761719 226.621094 49.386719 227.046875 49.050781 227.503906 C 48.714844 227.960938 48.425781 228.445312 48.179688 228.957031 L 8.351562 310.671875 C 8.003906 311.375 7.75 312.113281 7.59375 312.886719 C 7.433594 313.65625 7.375 314.433594 7.414062 315.21875 C 7.457031 316.003906 7.59375 316.773438 7.832031 317.523438 C 8.066406 318.273438 8.394531 318.980469 8.8125 319.648438 L 11.570312 324.007812 L 95.445312 324.007812 C 96.308594 324.003906 97.15625 323.886719 97.984375 323.644531 C 98.816406 323.40625 99.597656 323.054688 100.328125 322.59375 C 101.058594 322.136719 101.714844 321.582031 102.289062 320.941406 C 102.867188 320.296875 103.34375 319.585938 103.71875 318.804688 L 127.914062 269.160156 L 276.324219 324 L 356.75 324 C 357.535156 324.003906 358.308594 323.90625 359.066406 323.710938 C 359.824219 323.515625 360.546875 323.230469 361.234375 322.847656 C 361.917969 322.46875 362.546875 322.007812 363.113281 321.46875 C 363.679688 320.925781 364.171875 320.324219 364.585938 319.65625 L 367.292969 315.261719 Z M 89.757812 305.621094 L 31.234375 305.621094 L 61.058594 244.429688 L 110.648438 262.757812 Z M 307.648438 234.738281 L 237.640625 211.152344 L 196.957031 127.625 L 226.210938 67.59375 Z M 211.480469 55.859375 L 186.683594 106.675781 L 161.945312 55.878906 Z M 99.085938 164.421875 L 147.160156 67.441406 L 176.5 127.625 L 150.140625 181.667969 Z M 167.738281 187.558594 L 186.683594 148.570312 L 213.175781 202.921875 Z M 283.695312 305.621094 L 248.957031 234.339844 L 318.945312 257.925781 L 342.175781 305.578125 Z M 283.695312 305.621094 " fill-opacity="1" fill-rule="nonzero"/></g></svg>